<svg xmlns="http://www.w3.org/2000/svg" width="133.328" height="238.415" viewBox="0 0 133.328 238.415"><defs><style>.a{fill:#2b2828;}</style></defs><path class="a" d="M1016.9,222.04a15.277,15.277,0,0,0-15.276,15.278v100a66.59,66.59,0,0,0-72.219,0V236.869a15.278,15.278,0,0,0-30.555,0V393.822c0,.162.021.32.025.48a66.644,66.644,0,0,0,133.256.9c.019-.307.047-.614.047-.927V237.317A15.278,15.278,0,0,0,1016.9,222.04ZM965.518,429.454a36.109,36.109,0,1,1,36.11-36.11A36.15,36.15,0,0,1,965.518,429.454Z" transform="translate(-898.854 -221.593)"/></svg>